<?xml version="1.0" encoding="UTF-8" standalone="no"?>
<svg
   xmlns:dc="http://purl.org/dc/elements/1.1/"
   xmlns:cc="http://creativecommons.org/ns#"
   xmlns:rdf="http://www.w3.org/1999/02/22-rdf-syntax-ns#"
   xmlns:svg="http://www.w3.org/2000/svg"
   xmlns="http://www.w3.org/2000/svg"
   viewBox="0 0 486.66666 265.94666"
   height="265.94666"
   width="486.66666"
   xml:space="preserve"
   id="svg2"
   version="1.1"><metadata
     id="metadata8"><rdf:RDF><cc:Work
         rdf:about=""><dc:format>image/svg+xml</dc:format><dc:type
           rdf:resource="http://purl.org/dc/dcmitype/StillImage" /></cc:Work></rdf:RDF></metadata><defs
     id="defs6"><clipPath
       id="clipPath20"
       clipPathUnits="userSpaceOnUse"><path
         id="path18"
         d="M 0,1994.63 V 0 h 3650 v 1994.63 z" /></clipPath></defs><g
     transform="matrix(1.3333333,0,0,-1.3333333,0,265.94667)"
     id="g10"><g
       transform="scale(0.1)"
       id="g12"><g
         id="g14"><g
           clip-path="url(#clipPath20)"
           id="g16"><path
             id="path22"
             style="fill:#100f0d;fill-opacity:1;fill-rule:nonzero;stroke:none"
             d="m 3581.37,1765.66 c -135.67,205.23 -411.82,228.97 -607.75,228.97 H 846.633 L 506.699,1196.37 h 378.762 l -166,-389.792 H 340.055 L 0,8.07031 H 1979.99 L 2217.64,566.172 h 358.86 c 633.56,0 847.21,296.566 983.7,617.078 55.62,130.61 159.13,373.72 21.17,582.41" /><path
             id="path24"
             style="fill:#a7b7b1;fill-opacity:1;fill-rule:nonzero;stroke:none"
             d="m 3407.46,1650.68 c -61.09,92.4 -198.94,135.45 -433.84,135.45 H 984.469 L 822.125,1404.89 H 1200.87 L 857.297,598.07 H 477.871 L 315.406,216.582 H 1842.15 l 162.44,381.488 h -384.74 l 75.2,176.61 h 881.45 c 538.49,0 681.81,231.91 791.87,490.27 58.31,136.89 109.35,279.45 39.09,385.73 z M 1963.44,1404.89 h 652.06 c 47.01,0 81.3,-11.1 94.09,-30.47 14.83,-22.38 2.93,-58.83 -5.46,-78.56 -36.76,-86.34 -124.24,-139.97 -228.23,-139.97 h -618.48 l 106.02,249" /><path
             id="path26"
             style="fill:#ac8f5e;fill-opacity:1;fill-rule:nonzero;stroke:none"
             d="M 2973.62,1746.68 H 1010.54 L 881.785,1444.34 H 1260.55 L 883.371,558.602 H 503.945 L 375.086,256.031 H 1816.08 l 128.86,302.571 h -384.75 l 108.79,255.527 h 907.51 c 520.12,0 650.83,220.351 755.58,466.261 104.72,245.93 161.64,466.29 -358.45,466.29 z m -497.74,-630.22 h -678.14 l 139.62,327.88 h 678.14 c 120.02,0 168.43,-61.74 124.93,-163.95 -43.55,-102.18 -144.53,-163.93 -264.55,-163.93" /><path
             id="path28"
             style="fill:#100f0d;fill-opacity:1;fill-rule:nonzero;stroke:none"
             d="m 2244.05,112.648 31.86,-80.6285 29.51,80.6285 h 31.42 V 0 h -20.71 V 92.9609 L 2281.54,0 h -11.74 l -36.41,92.9609 V 0 h -20.09 v 112.648 z m -56.1,0 V 95.9102 h -36.02 V 0 h -22.63 v 95.9102 h -36.02 v 16.7378 h 94.67" /></g></g></g></g></svg>