<?xml version="1.0" encoding="UTF-8" standalone="no"?>
<svg
   xmlns:dc="http://purl.org/dc/elements/1.1/"
   xmlns:cc="http://creativecommons.org/ns#"
   xmlns:rdf="http://www.w3.org/1999/02/22-rdf-syntax-ns#"
   xmlns:svg="http://www.w3.org/2000/svg"
   xmlns="http://www.w3.org/2000/svg"
   xmlns:sodipodi="http://sodipodi.sourceforge.net/DTD/sodipodi-0.dtd"
   xmlns:inkscape="http://www.inkscape.org/namespaces/inkscape"
   version="1.0"
   x="0px"
   y="0px"
   viewBox="0 0 100 125"
   enable-background="new 0 0 100 100"
   xml:space="preserve"
   id="svg2"
   inkscape:version="0.91 r13725"
   sodipodi:docname="Q25443024_noun_35166_ccPierre-LucAuclair_to_walk.svg"><metadata
     id="metadata14"><rdf:RDF><cc:Work
         rdf:about=""><dc:format>image/svg+xml</dc:format><dc:type
           rdf:resource="http://purl.org/dc/dcmitype/StillImage" /><dc:title></dc:title></cc:Work></rdf:RDF></metadata><defs
     id="defs12" /><sodipodi:namedview
     pagecolor="#ffffff"
     bordercolor="#666666"
     borderopacity="1"
     objecttolerance="10"
     gridtolerance="10"
     guidetolerance="10"
     inkscape:pageopacity="0"
     inkscape:pageshadow="2"
     inkscape:window-width="1680"
     inkscape:window-height="988"
     id="namedview10"
     showgrid="false"
     inkscape:zoom="3.776"
     inkscape:cx="37.176299"
     inkscape:cy="44.632959"
     inkscape:window-x="-8"
     inkscape:window-y="-8"
     inkscape:window-maximized="1"
     inkscape:current-layer="svg2" /><path
     d="m 46.160027,96.85918 -15.530484,22.14873 c -1.935469,2.76088 -5.743154,3.43115 -8.505541,1.49416 -2.665989,-1.86919 -3.372387,-5.50066 -1.673392,-8.23291 l 13.817916,-22.129166 0.218398,-5.157245 c 0.07983,-2.187011 0.215389,-4.367993 0.247023,-6.559523 0.0091,-0.123512 0.02561,-0.247023 0.03616,-0.370519 l 10.977225,17.714472 0.412703,1.092001 z m 11.655012,-36.799603 4.467396,6.814073 c 1.036277,1.581514 2.760876,2.438538 4.518618,2.438538 1.015178,0 2.042416,-0.286184 2.955181,-0.884139 2.492768,-1.634232 3.190142,-4.981016 1.554399,-7.473783 L 60.125562,43.891978 C 59.12243,48.678703 58.200627,54.715569 57.815039,60.059577 Z M 74.219112,113.3235 65.142715,87.00408 C 65.040291,86.716401 64.903234,86.407622 64.746577,86.134994 L 64.513111,85.72681 52.064326,64.046499 c 0.01052,-0.643145 0.0016,-1.266719 0.03012,-1.930949 0.06476,-1.343529 0.162672,-2.708157 0.277145,-4.08332 0.250032,-2.754844 0.599467,-5.544345 1.024216,-8.315754 0.427757,-2.769914 0.930841,-5.535307 1.527285,-8.210318 0.29974,-1.331484 0.617543,-2.652432 0.96849,-3.889015 l 0.262076,-0.923299 0.230443,-0.727498 c 0.09188,-0.372031 0.42475,-1.201955 0.671772,-1.866186 l 0.04971,-0.134046 0.0091,-0.02259 c 1.584521,-4.291182 -0.610016,-9.053801 -4.901184,-10.638323 -3.742922,-1.382688 -7.842808,0.111466 -9.882216,3.361854 l -13.76219,14.893353 c -0.495542,0.534702 -0.876612,1.164291 -1.120612,1.851133 l -6.473645,18.161786 c -1.001619,2.807562 0.46391,5.895292 3.272983,6.896911 0.597971,0.213878 1.210995,0.314795 1.811958,0.314795 2.218644,0 4.297197,-1.37817 5.084954,-3.587777 l 5.535307,-15.530484 c -0.314794,2.283408 -0.59797,4.575855 -0.80733,6.898424 -0.135557,1.584522 -0.250031,3.182616 -0.325344,4.804786 -0.0723,1.628202 -0.0994,3.29709 -0.0723,5.01717 l 0,0.0015 0.01507,0.433787 c 0.05573,1.290812 0.454871,2.584646 1.224551,3.738404 l 15.018362,22.513243 10.219604,24.879494 c 1.314918,3.18262 4.907215,4.84546 8.204304,3.70828 3.425105,-1.18087 5.243093,-4.91476 4.062221,-8.33837 z M 48.792871,2.1068388 c -4.952405,1.8179884 -7.494883,7.3081044 -5.675384,12.2620212 1.817989,4.955413 7.309616,7.496379 12.26051,5.678391 C 60.330401,18.229263 62.87288,12.739147 61.05338,7.7837346 59.235392,2.8298176 53.743765,0.2888515 48.792871,2.1068388 Z"
     id="path4"
     inkscape:connector-curvature="0" /></svg>